<svg id="Icons" xmlns="http://www.w3.org/2000/svg" width="128" height="128" viewBox="0 0 128 128">
  <defs>
    <style>
      .cls-1 {
        fill: #e57200;
      }
    </style>
  </defs>
  <title>128</title>
  <path class="cls-1" d="M102,29.58878A3.59934,3.59934,0,0,0,98.41122,26H36.76635A10.76635,10.76635,0,0,0,26,36.76635V91.41122A3.59934,3.59934,0,0,0,29.58878,95H57.77672c2.71825-2.0093,5.6862-5.02268,6.67519-9.03993.08079-.32832.18-.64019.2704-.96007H34V79.5528a47.80242,47.80242,0,0,1,16.98694-9.90791c3.63623,3.2676,7.64951,4.11918,11.53527,4.9277a36.77114,36.77114,0,0,1,5.67352,1.5194,18.22769,18.22769,0,0,1,4.02976-3.467,32.47982,32.47982,0,0,0-8.72535-2.75154,25.03262,25.03262,0,0,1-7.01055-2.17931C71.27173,62.282,81.14646,56.04647,87.16239,34H94V55.96727l8-8.00063ZM60.11106,34a28.95806,28.95806,0,0,1-8.5495,9.96882,6.29288,6.29288,0,0,0-7.27249-1.70152A52.30348,52.30348,0,0,0,37.73365,34ZM34,73.60306V38.049a3.58024,3.58024,0,0,1,.06133-.608A45.76351,45.76351,0,0,1,40.969,46.31385a6.26171,6.26171,0,0,0,3.15567,7.94495c.27212,1.13654.4797,2.22773.68093,3.291.55461,2.93261,1.0909,5.7519,2.82345,8.55724A54.61773,54.61773,0,0,0,34,73.60306ZM52.196,63.98c-1.74314-2.33623-2.21641-4.72247-2.79468-7.77942-.132-.69772-.26928-1.41749-.42407-2.15844a6.31644,6.31644,0,0,0,4.095-5.35594c4.98124-3.03249,9.185-7.995,12.42012-14.68618H81.92882C76.21175,53.97561,67.357,58.68341,52.196,63.98Zm56.31439,7.52815L98.06608,81.95235a16.7875,16.7875,0,0,0-5.73123-7.03592,15.893,15.893,0,0,0-3.67224-1.86974L102.65377,59.0556l5.8566,5.8566A4.664,4.664,0,0,1,108.51037,71.50814ZM70.05572,87.955c-2.87383,11.67487-15.9502,16.74766-15.9502,16.74766s13.98963,3.6967,27.04184-1.15129C97.386,97.5198,96.32949,84.26565,89.25511,79.33093,84.75345,76.1908,73.218,75.108,70.05572,87.955Z"/>
</svg>
