<svg id="icons" xmlns="http://www.w3.org/2000/svg" width="128" height="128" viewBox="0 0 128 128">
  <defs>
    <style>
      .cls-1 {
        fill: #8c12cc;
      }
    </style>
  </defs>
  <title>144</title>
  <path class="cls-1" d="M69.7065,77.92529l3.43882,9.19182A160.45959,160.45959,0,0,0,56.38643,98.786C57.38643,90.89714,63.38643,82.286,69.7065,77.92529ZM93.09819,91.14844a15.32449,15.32449,0,0,1,.6591,8.21842l-.924,4.74422-3.81881-2.94425a15.32487,15.32487,0,0,1-4.99227-6.75651L72.51978,63.73079l-4.56844-1.29907L64.00456,49.97819,64,49.99194l-.00456-.01375L60.04867,62.43172l-4.56844,1.29907L45.73881,89.64827a18.89745,18.89745,0,0,1-9.53589,10.39941l-5.552,2.65535L53.53727,40.47168a13.86092,13.86092,0,1,1,20.92546,0l11.27,30.64746c4.07068-.43783,9.93087-.60889,18.987,3.778a64.19082,64.19082,0,0,0-15.77543,4.95549ZM69.66667,31.38485A5.66667,5.66667,0,1,0,64,37.05143,5.6726,5.6726,0,0,0,69.66667,31.38485Z"/>
</svg>
