<svg id="icons" xmlns="http://www.w3.org/2000/svg" width="65" height="65" viewBox="0 0 128 128">
  <defs>
    <style>
      .cls-1 {
        fill: #008fdd;
      }
    </style>
  </defs>
  <title>Artboard 22</title>
  <path class="cls-1" d="M71.94407,81.64662c0,2.91205-3.52806,5.27216-7.88006,5.27216-4.35,0-7.88011-2.36011-7.88011-5.27216,0-2.91185,3.53016-5.26786,7.88011-5.26786C68.416,76.37875,71.94407,78.73477,71.94407,81.64662ZM87.738,62.02269l-4.61,4.608c7.01993,3.388,11.528,8.592,11.528,14.44,0,10.216-13.7259,18.49589-30.65589,18.49589-16.9302,0-30.65607-8.27986-30.65607-18.49589,0-5.84806,4.514-11.05592,11.54189-14.44393L40.27607,62.0147C30.42007,66.83876,24,74.57078,24,83.31061c0,14.636,17.91,26.496,40.00009,26.496C86.09,109.80661,104,97.94664,104,83.31061,104,74.57467,97.586,66.84675,87.738,62.02269ZM80,28.82666V56.32788l-15.98926,16-16-16V28.82666c0-8.78407,7.21531-12.16,15.99918-12.16C72.794,16.66667,80,20.04259,80,28.82666ZM72.67741,36a8.66667,8.66667,0,1,0-8.66667,8.66667A8.73858,8.73858,0,0,0,72.67741,36Z"/>
</svg>
