<svg id="Icons" xmlns="http://www.w3.org/2000/svg" width="65" height="65" viewBox="0 0 128 128">
  <defs>
    <style>
      .cls-1 {
        fill: #1a64f0;
      }
    </style>
  </defs>
  <title>CityEngine_144</title>
  <path class="cls-1" d="M109.99945,91.50024,64,112,25,100.5c19.375-10.5625,32.02649-6.01514,32.02649-6.01514L50,97.5l14.007,4.12817L94.77222,88.16272C87.25,84,79.24091,81.59863,67.59174,81c-23.41119-1.20337-46.22845,8.89587-48.52765,10.15356A64.45151,64.45151,0,0,1,31,80.56226V50h7V41H48V72.77087l.01709-.00494A57.929,57.929,0,0,1,55,71.33228V25L73,15V57h7V49.24536a7.24,7.24,0,0,1,7-7.233V42H97V79.02466l.01709.0097A36.24885,36.24885,0,0,1,109.99945,91.50024Z"/>
</svg>
