<svg id="icons" xmlns="http://www.w3.org/2000/svg" width="128" height="128" viewBox="0 0 128 128">
  <defs>
    <style>
      .cls-1 {
        fill: #0cb6f2;
      }
    </style>
  </defs>
  <title>Artboard 22</title>
  <path class="cls-1" d="M93.66667,32H84.74133l-1.18578-4H76.44444a12.45267,12.45267,0,0,0-24.88889,0H44.44444l-1.18578,4H33.33333A5.33333,5.33333,0,0,0,28,37.33333V97.66667A5.33333,5.33333,0,0,0,33.33333,103H93.66667A5.33333,5.33333,0,0,0,99,97.66667V37.33333A5.33333,5.33333,0,0,0,93.66667,32ZM64,23.11111a5.33333,5.33333,0,1,1-5.33333,5.33333A5.33916,5.33916,0,0,1,64,23.11111ZM37,93V41H90V66H64V93Zm34-.44444V73H90.55556A19.55546,19.55546,0,0,1,71,92.55556Z"/>
</svg>
