<svg id="Icons" xmlns="http://www.w3.org/2000/svg" width="128" height="128" viewBox="0 0 128 128">
  <defs>
    <style>
      .cls-1 {
        fill: #502070;
      }
    </style>
  </defs>
  <title>144</title>
  <path class="cls-1" d="M82.46257,89.80534l16.57292-22.278-16.84115-22.638H94.482a3.09714,3.09714,0,0,1,2.48493,1.24852l15.91233,21.3895L99.152,85.98a9.48911,9.48911,0,0,1-7.61347,3.82534Zm-36.6569,0-16.84115-22.638,16.57292-22.278H33.24982a3.09714,3.09714,0,0,0-2.485,1.24855L15.12077,67.16732,29.11618,85.98008a9.48911,9.48911,0,0,0,7.61341,3.82526Zm26.671-61.472L42.69043,106.32992l.00911.00342A18.64014,18.64014,0,0,0,60.11308,94.34327l25.19649-65.9782-.083-.03174Z"/>
</svg>
