<svg id="icons" xmlns="http://www.w3.org/2000/svg" width="128" height="128" viewBox="0 0 128 128">
  <defs>
    <style>
      .cls-1 {
        fill: #4d86b3;
      }
    </style>
  </defs>
  <title>128</title>
  <path class="cls-1" d="M62.79881,36.505A11.10016,11.10016,0,0,1,64.309,26.21106c2.87433-3.97484,8.29943-6.44378,14.15872-6.44378a22.4514,22.4514,0,0,1,2.35343.12611C91.70293,21.07279,96.702,28.192,96.741,34.30675c.03719,5.66307-4.185,11.89467-13.70175,13.05046h-.00209a30.50636,30.50636,0,0,1,2.51684-6.121c3.947-1.977,5.6494-5.04363,4.7938-8.63321-.97345-4.08174-5.72192-8.486-11.697-8.486a12.53782,12.53782,0,0,0-7.10725,2.26208,7.97517,7.97517,0,0,0-3.67647,5.76326A37.08042,37.08042,0,0,1,62.79881,36.505Zm-30.35569,20.303a22.80161,22.80161,0,0,0,3.80919-.53382,36.70194,36.70194,0,0,0-5.3814-4.796c-5.15733-.48939-8.92794-3.69254-9.38352-7.97073a8.76512,8.76512,0,0,1,2.33693-6.95284,14.57737,14.57737,0,0,1,10.59289-4.39666c4.03349,0,7.40919,1.66463,9.26242,4.56859a46.00315,46.00315,0,0,0,7.034,2.43771C49.88526,32.94917,44.3014,28.2038,36.81946,27.3539a25.71978,25.71978,0,0,0-2.91291-.168,19.62257,19.62257,0,0,0-13.95348,5.39766,16.2809,16.2809,0,0,0-4.98579,11.41059c0,5.931,4.14576,12.85656,15.82972,12.85656C31.33114,56.85073,31.87946,56.83777,32.44312,56.80792Zm47.65795-27.7242a6.89067,6.89067,0,0,0-.69892-.03644c-3.00884,0-4.61608,2.03712-4.64976,4.04967-.0318,1.95965,1.49386,4.11964,4.91983,4.2321l.224.00354c2.99064,0,4.65561-1.969,4.755-3.91368C84.74894,31.50028,83.37977,29.41526,80.10107,29.08373ZM34.3627,36.97742a6.84762,6.84762,0,0,0-.81146-.04811,5.55391,5.55391,0,0,0-5.58444,3.95346c-.37529,1.75119.53135,3.29975,2.42623,4.14442a5.64624,5.64624,0,0,0,2.27352.465,6.20592,6.20592,0,0,0,3.40108-1.00981,4.32833,4.32833,0,0,0,2.05512-4.54489A4.06908,4.06908,0,0,0,34.3627,36.97742Zm-.18558,49.40193a5.20706,5.20706,0,0,0,4.24664,5.8371,7.15449,7.15449,0,0,0,1.75075.22845h.00126a5.71718,5.71718,0,0,0,5.68631-5.55117,5.22109,5.22109,0,0,0-4.7372-5.74338,6.85324,6.85324,0,0,0-.94033-.06435A5.995,5.995,0,0,0,34.17712,86.37935Zm19.32325.97568a14.41939,14.41939,0,0,1-8.61066,11.076,15.87184,15.87184,0,0,1-6.32,1.41473,12.30712,12.30712,0,0,1-11.9408-9.68465c-1.1952-4.89254.13923-11.464,7.4673-15.23572.46418-.70435.88-1.37076,1.25772-2.01218a47.09752,47.09752,0,0,0,2.64631-5.24009c-13.196,1.85206-19.23633,12.45047-19.26445,21.51313-.02348,7.458,4.26152,16.80155,16.41546,18.58742a21.86659,21.86659,0,0,0,3.1751.23278,22.78007,22.78007,0,0,0,18.063-9.1536A20.06831,20.06831,0,0,0,59.861,81.00866,49.3749,49.3749,0,0,0,53.50037,87.355ZM94.7219,81.34812h.001a4.58187,4.58187,0,0,0,4.72444-4.51574,5.80536,5.80536,0,0,0-5.18571-6.24111,7.19554,7.19554,0,0,0-.91836-.05977A4.80615,4.80615,0,0,0,88.327,74.84919a5.78334,5.78334,0,0,0,4.75038,6.29629A7.18023,7.18023,0,0,0,94.7219,81.34812Zm-.05446-22.90935a21.69126,21.69126,0,0,0-2.68164-.1666,20.96911,20.96911,0,0,0-5.12944.63239,51.73937,51.73937,0,0,0,6.63517,5.17506c9.36632.87466,13.26058,7.63221,12.96446,13.942-.264,5.61355-4.00932,11.29744-10.65681,11.29744a17.24458,17.24458,0,0,1-8.722-2.77762,14.936,14.936,0,0,1-4.659-4.39134,54.19034,54.19034,0,0,0-8.29757-3.21217c2.0329,9.7772,11.44571,17.1491,21.89356,17.1491a21.29,21.29,0,0,0,3.00194-.21219c11.31112-1.61511,15.26861-9.65225,15.20074-16.63633C114.12784,70.08885,107.38481,60.00575,94.66744,58.43877ZM76.96381,72.0057a10.533,10.533,0,0,0,2.79716.75248.7657.7657,0,0,0,.6406-.23787,11.12542,11.12542,0,0,0,.44117-1.17362c.1125-.33135.218-.63494.29892-.8219a11.20834,11.20834,0,0,1,2.40248-3.5588,4.70282,4.70282,0,0,0,.549-.63864c-.00651-.19159-.40584-.77933-2.27-2.49069l-.38073-.34894c-2.18585-1.99-4.6627-4.24557-5.89974-8.33749a13.31429,13.31429,0,0,1,.82515-9.93872c.437-1.02923.71312-1.728.57087-2.0418-.04881-.10737-.26591-.39151-1.23239-.71268a13.71042,13.71042,0,0,1-3.402-1.67064c-.16643-.11384-.35656-.261-.57412-.43316a4.848,4.848,0,0,0-.93208-.63494,1.36284,1.36284,0,0,0-.15666-.03332,2.13828,2.13828,0,0,0-.22872-.01666c-.18456,0-.39561.14069-1.50387,1.00146-.64711.50443-1.54246,1.20231-2.845,2.15009A17.39354,17.39354,0,0,1,55.487,46.22224a28.10211,28.10211,0,0,1-8.89772-1.65213c-.46581-.15087-.82562-.26934-1.065-.3221a1.77245,1.77245,0,0,0-.37422-.04813c-.31472,0-.46162.10829-1.07758,1.09957a12.29658,12.29658,0,0,1-1.66426,2.22783A7.39218,7.39218,0,0,1,40.87132,48.837a2.499,2.499,0,0,0-.54576.44057.98725.98725,0,0,0-.20129.2536,8.86674,8.86674,0,0,0,1.7484,1.98349c.50486.497,1.09153,1.07643,1.74189,1.7669,4.17784,4.389,4.91,9.724,2.23791,16.30753-.258.63586-.49509,1.1912-.70987,1.69378a8.09864,8.09864,0,0,0-.79819,2.32132c.02882.06664.22546.26841,1.42252.709a12.38684,12.38684,0,0,1,4.69153,2.99235c.67546.64049.93022.84041,1.21007.84041a1.3501,1.3501,0,0,0,.4249-.08978,9.90054,9.90054,0,0,0,1.77722-1.41056,32.80823,32.80823,0,0,1,4.35751-3.40978l1.70028,2.88776a1.90745,1.90745,0,0,0,1.64241.93667,1.88079,1.88079,0,0,0,.43419-.05l7.42453-1.72988a1.89921,1.89921,0,0,0,1.44995-1.56791l.47627-3.19875A29.98447,29.98447,0,0,1,76.96381,72.0057Z"/>
</svg>
