<svg id="icons" xmlns="http://www.w3.org/2000/svg" width="65" height="65" viewBox="0 0 128 128">
  <defs>
    <style>
      .cls-1 {
        fill: #007ac2;
      }
    </style>
  </defs>
  <title>Enterprise128</title>
  <path class="cls-1" d="M98.7669,44.475c-5.07666-9.38989-18.379-17.62415-32.93951-16.98883a29.46607,29.46607,0,0,0-7.50128.73523,1.38906,1.38906,0,0,0-1.81964,1.3382,1.84975,1.84975,0,0,0,.67737,1.58893,56.69,56.69,0,0,1,6.999,6.06189c-1.32886.14545-2.775.39032-4.25592.69635-1.65363-3.5769-6.97577-.324-10.50745-.18317-.4118.01666-.81683.04865-1.22369.07642a57.32716,57.32716,0,0,1-.59247-8.24042c4.58008-2.59277,13.43506-4.50543,19.45349-4.59967l1.053-.02765c.88391-.00745.95386-.71124.12317-.82483-7.47479-1.02032-13.94727.49023-20.59576,3.24219-6.91937,2.91626-15.72467,9.62787-21.0946,22.29358C25.288,53.173,20.26568,70.0013,29.18816,84.44588,36.431,96.16866,45.75811,101.74514,57.16576,103.339c11.38593,1.58673,17.5636.21021,24.76538-2.98743C98.77038,92.877,111.62945,64.81606,98.7669,44.475ZM59.5216,28.99795c14.14532-.88043,26.85211,4.97034,32.46619,11.84369a43.64969,43.64969,0,0,0-7.54852-2.72437,16.84335,16.84335,0,0,0-2.96814-2.26056c-.7644-.48645-1.717-.30542-1.32111.547a11.52678,11.52678,0,0,0,1.20886,1.44922,55.28633,55.28633,0,0,0-13.74054-1.03125C65.313,34.2289,62.68291,31.08346,59.5216,28.99795ZM95.58385,71.84151c-.68036-.29877-1.42737-.57019-2.19659-.82941.55444-1.15106,1.16583-2.37543,1.82666-3.5946C95.38634,68.96731,95.50915,70.4775,95.58385,71.84151ZM34.78252,60.80611a5.01329,5.01329,0,0,1,4.18683-3.728c3.4729-.34772,6.45319-5.51489,8.902-8.90442.05243-.07257.10913-.13153.16211-.20233.65979,3.34375,1.45172,6.11285,2.50531,9.95331a94.7907,94.7907,0,0,0-14.08008,8.41058A48.61676,48.61676,0,0,1,34.78252,60.80611ZM37.66875,69.255a76.73091,76.73091,0,0,1,13.644-8.44672c1.41162,4.22028,3.4353,9.85706,4.83856,12.87122-.20465.09808-.41479.20337-.62506.309-3.11676-.86865-5.04156-1.3504-9.20312-2.20477-2.816-.57477-2.91864-.42511-6.08716.49756-.45239.12964-.88739.25006-1.30939.37439C38.50579,71.5801,38.08862,70.45376,37.66875,69.255ZM73.41692,45.0787c-.03.04291-.07086.08142-.10376.12317a65.36083,65.36083,0,0,0-3.90405-5.98334,61.78775,61.78775,0,0,1,9.4519.29694C76.03539,40.55593,74.81225,43.0859,73.41692,45.0787ZM63.88061,56.06741A5.73755,5.73755,0,0,1,63.3543,58.625a7.07814,7.07814,0,0,0,.37817,5.022c2.13593,3.1084,5.68256,1.38147,8.35248,2.49976a6.09842,6.09842,0,0,1,2.72516,2.374A45.4239,45.4239,0,0,0,58.66668,72.513a118.33142,118.33142,0,0,1-4.86993-12.80353A54.62832,54.62832,0,0,1,63.88061,56.06741ZM58.32269,86.4938a27.28411,27.28411,0,0,0,1.723-5.327c1.60864,2.70288,3.52478,5.64063,5.00885,7.9425a48.92692,48.92692,0,0,0-7.55707,4.75372C57.67284,90.93356,57.73113,88.03384,58.32269,86.4938Zm1.79663-11.06342a43.80389,43.80389,0,0,1,16.3349-4.08484,13.22179,13.22179,0,0,0,1.962,2.70343c2.13989,2.19061-1.26538,5.31964-.28851,11.51709-.99982.10791-1.99042.2392-2.86438.37482a41.378,41.378,0,0,0-7.59546,2.04321C66.16668,85.59786,62.15044,79.804,60.11932,75.43038ZM66.11846,39.5942a44.50293,44.50293,0,0,1,4.95142,7.19855c-2.27728,1.101-5.32111,1.93982-6.55493,3.70313a5.04083,5.04083,0,0,0-.65631,2.81378,66.77034,66.77034,0,0,0-10.97125,3.63916c-1.27759-3.75922-2.41418-7.522-3.18774-10.8631,3.72284-3.55731,8.0943-4.09186,9.81311-5.50867A50.64412,50.64412,0,0,1,66.11846,39.5942ZM45.926,30.33834a74.12587,74.12587,0,0,0,.61261,7.60028c-1.6134.16168-3.20178.38025-4.78363.61591a34.209,34.209,0,0,0-8.81726,11.53741,43.19588,43.19588,0,0,1-.38684-6.94678C36.26592,37.93771,41.319,32.86721,45.926,30.33834Zm-15.78619,16.856s.17511,2.99957.32,5.18652a33.66963,33.66963,0,0,0-3.33661,4.50287C27.57006,52.79855,28.53136,50.69271,30.13982,47.19436ZM28.87066,75.783a49.44723,49.44723,0,0,1-1.84393-18.3161,1.84557,1.84557,0,0,0,1.07581.04724c.38159-.26093,1.74249-1.21729,2.70972-2.05908.01257.11145.029.23389.04425.35321A34.10116,34.10116,0,0,0,29.7293,63.495a54.85634,54.85634,0,0,1,3.63776,4.82837c-.87866.65234-2.55957,1.81555-2.95447,2.09814a1.77867,1.77867,0,0,0-.32251,2.87146A1.601,1.601,0,0,0,31.823,73.264a30.20126,30.20126,0,0,1,3.0166-2.176c.42474,1.104.82056,2.10175,1.21161,3.05219a3.82836,3.82836,0,0,0-.96307,2.278c-.38037,3.31586,2.77032,5.91705,5.42932,6.67773.09534.02728.17969.0473.2702.07135.1394.2099.26636.41125.41315.62653a16.24762,16.24762,0,0,0-2.96692,3.00677c-.37323.48792-.79584,1.21722-.4516,1.36212a6.00678,6.00678,0,0,0,2.03235-.09644c1.31989-.25372,2.33777-1.71478,3.24933-2.251A50.36612,50.36612,0,0,0,47.77734,91.125c.083.3515.16907.6922.26538,1.00317a21.14762,21.14762,0,0,0,1.4007,3.38361,34.20111,34.20111,0,0,0,4.128,1.59515A23.88113,23.88113,0,0,0,51.826,99.1368,35.7279,35.7279,0,0,1,28.87066,75.783ZM54.625,100.02065a12.355,12.355,0,0,1,1.42987-1.7702c1.32208.87671,2.73993,1.88147,3.87012,2.52869A27.15913,27.15913,0,0,1,54.625,100.02065Zm8.808.87671a62.47082,62.47082,0,0,1-5.68408-4.16113,39.74459,39.74459,0,0,1,8.85132-5.34454c1.13635,1.78479,4.88574,7.0932,6.38788,8.8053A48.95846,48.95846,0,0,1,63.433,100.89736Zm12.736-1.47321a66.30274,66.30274,0,0,1-6.90479-9.05878,39.41718,39.41718,0,0,1,9.45721-2.32562,21.54964,21.54964,0,0,0,1.26819,3.09845A7.12534,7.12534,0,0,0,81.825,93.55312c.2442-.1521.47028-.32886.71027-.48688-.01648,1.18353-.05688,2.40234-.1283,3.56384A46.935,46.935,0,0,1,76.16894,99.42416Zm8.39966-3.96057c.06512-1.14978.1142-2.6123.14984-3.95184a34.3166,34.3166,0,0,0,3.87476-3.501,35.07954,35.07954,0,0,1,4.03931.6759A31.19672,31.19672,0,0,1,84.5686,95.46358ZM95.39043,84.92416a11.69294,11.69294,0,0,1-1.79071,2.53094,27.57716,27.57716,0,0,0-3.59833-1.06116c.222-.26605.4621-.51611.67615-.78894.76074-5.08112-.95532-6.70886,1.19177-11.358.14911-.32294.31384-.68011.48566-1.0509a32.13563,32.13563,0,0,1,3.26123,1.092A85.66784,85.66784,0,0,1,95.39043,84.92416Zm3.72418-8.58563a51.17627,51.17627,0,0,1-2.35364,6.2887,72.49473,72.49473,0,0,0,.41919-7.72333,1.68341,1.68341,0,0,0,1.58051-.966c.16077-.55072-1.59509-1.40076-1.59509-1.40076a58.70873,58.70873,0,0,0-.48779-7.64081c.40265-.6485.81091-1.27887,1.228-1.85291a34.19658,34.19658,0,0,0-.49664-4.43915,3.26052,3.26052,0,0,0,.88666.19586c.79956.01215.79706-.53741.54108-.84277a10.64858,10.64858,0,0,0-1.80017-1.17725A34.017,34.017,0,0,0,89.1563,41.71743a42.48809,42.48809,0,0,1,4.959,2.18634c1.16156,1.46008,4.48486,4.73956,6.25751,13.923a34.42888,34.42888,0,0,1-.71,16.37183Z"/>
</svg>
