<svg id="icons" xmlns="http://www.w3.org/2000/svg" width="65" height="65" viewBox="0 0 128 128">
  <defs>
    <style>
      .cls-1 {
        fill: #18b531;
      }
    </style>
  </defs>
  <title>144</title>
  <path class="cls-1" d="M64,22.083A42.667,42.667,0,1,0,106.667,64.75,42.6662,42.6662,0,0,0,64,22.083ZM92.958,80.2607A33.48273,33.48273,0,0,1,31.77639,53.9268a29.61817,29.61817,0,0,0,11.291,5.8964,28.78419,28.78419,0,0,0,8.2187,1.1563A43.35285,43.35285,0,0,0,69.167,56.6514l5.98439,8.1191,5.958-22.1504-24.4795-3.3808,5.4433,7.5683A31.28424,31.28424,0,0,1,53.458,48.1514a16.2627,16.2627,0,0,1-9.03121-2.3965A5.43362,5.43362,0,0,1,41.833,42.1563a8.76744,8.76744,0,0,1,.21879-3.8233,33.48061,33.48061,0,0,1,55.0263,22.0527c-9.4892,14.375-26.417,21.3956-48.0205,20.6768C60.40139,87.9063,80.92189,88.4482,92.958,80.2607Z"/>
</svg>
