<svg xmlns="http://www.w3.org/2000/svg" width="65" height="65" viewBox="0 0 256 256"><defs><style>.cls-1{fill:#35009e;}</style></defs><title>ArcGIS Hub</title><g id="Layer_1" data-name="Layer 1"><path class="cls-1" d="M137.11,194.5V165.55a37.7,37.7,0,0,0,0-73.21V62.73a66.41,66.41,0,0,1,42.32,23.57L196,76.73A86.22,86.22,0,0,0,77.5,60.05,34.62,34.62,0,0,1,91.64,73a66.15,66.15,0,0,1,27.46-10.28V92.34A37.69,37.69,0,0,0,91.9,139.43L66.63,154a66.3,66.3,0,0,1-5-25.4c0-1.08,0-2.15.08-3.21a34.29,34.29,0,0,1-19.17-6.17,86.14,86.14,0,0,0,85.6,97A86.14,86.14,0,0,0,197,181.87l-18-10.41A66.4,66.4,0,0,1,137.11,194.5Zm-9-84.91a19.33,19.33,0,1,1-19.33,19.33A19.33,19.33,0,0,1,128.11,109.58Zm-52.39,60L100.9,155a37.64,37.64,0,0,0,18.21,10.53v29A66.42,66.42,0,0,1,75.71,169.56Zm138.67-39.64A86,86,0,0,1,208.21,162l-17.73-10.23a66.74,66.74,0,0,0,.12-45.93l16.88-9.75A86,86,0,0,1,214.39,129.92Zm-168.65-39A16.47,16.47,0,1,1,62.2,107.38,16.47,16.47,0,0,1,45.74,90.92Z"/></g></svg>
