<svg id="icons" xmlns="http://www.w3.org/2000/svg" width="128" height="128" viewBox="0 0 128 128">
  <defs>
    <style>
      .cls-1 {
        fill: #db5600;
      }
    </style>
  </defs>
  <title>Insights128</title>
  <path class="cls-1" d="M69.47614,86.47a61.74488,61.74488,0,0,0,9.53076,1.47034V99.9931A2.00883,2.00883,0,0,1,77,102H28.00623A2.00865,2.00865,0,0,1,26,99.9931V85.56763a70.361,70.361,0,0,1,9-1.98285V90H61.02521C64.715,90,67.91083,89.55511,69.47614,86.47ZM82.92529,72.04138c-16.334-.13013-20.76843-7.92621-38.07153-6.86A34.216,34.216,0,0,0,35,67.32123V54H70v8.6994c9.33333,2.85615,33,5.218,33-10.42065V24.57312A1.573,1.573,0,0,0,101.42688,23H65.57312A1.57317,1.57317,0,0,0,64,24.57312V37h9V32H94V48.82611A6.17384,6.17384,0,0,1,87.82623,55H79V47.00684A2.00878,2.00878,0,0,0,76.9931,45H28.00623A2.00863,2.00863,0,0,0,26,47.00684V72.11047A51.53249,51.53249,0,0,0,16,81a58.8439,58.8439,0,0,1,29.225-7.1c17.35938.22528,23.1438,6.832,38.05817,6.951a28.27617,28.27617,0,0,0,25.80438-15.61431S103.06158,72.2019,82.92529,72.04138Z"/>
</svg>
