<svg id="icons" xmlns="http://www.w3.org/2000/svg" width="128" height="128" viewBox="0 0 128 128">
  <defs>
    <style>
      .cls-1 {
        fill: #0cb6f2;
      }
    </style>
  </defs>
  <title>Artboard 1</title>
  <path class="cls-1" d="M110.37212,78.88253A9.04135,9.04135,0,0,1,92.33546,77.7668c-.46692-.07586-.9375-.14041-1.41341-.18721a21.73893,21.73893,0,0,0-5.39187.16224c-.00212.27344-.012.54834-.03935.82572A9.03077,9.03077,0,0,1,71.87358,85.453a21.84552,21.84552,0,0,0-3.4643,5.86376,9.04889,9.04889,0,1,1-5.96933-1.09959,27.5571,27.5571,0,0,1,5.5652-9.41852,9.03983,9.03983,0,0,1,15.50606-8.8152,27.97946,27.97946,0,0,1,7.9973-.35594,28.47735,28.47735,0,0,1,3.01511.46517,9.04119,9.04119,0,0,1,15.8485,6.78987ZM48.763,95H29.58879A3.59934,3.59934,0,0,1,26,91.41121V36.76636A10.76636,10.76636,0,0,1,36.76636,26H98.41121A3.59934,3.59934,0,0,1,102,29.58879V62.23839a14.79632,14.79632,0,0,0-8,1.68779V34H86.80973c-5.97529,21.9781-15.7852,28.19414-30.46885,33.58944a22.2394,22.2394,0,0,0,6.137,1.99387,16.10455,16.10455,0,0,0-1.77674,4.51234c-3.34023-.74328-6.72113-1.76139-9.82657-4.5614A47.45311,47.45311,0,0,0,34,79.4107V85H56.98409A16.63185,16.63185,0,0,0,48.763,95ZM65.496,34c-3.23459,6.6875-7.44539,11.64654-12.42326,14.68064a6.31623,6.31623,0,0,1-4.095,5.36127c.15486.74095.29228,1.46094.42443,2.15866.57776,3.05688,1.051,5.443,2.79366,7.77921C67.35751,58.68327,76.21163,53.97539,81.92856,34ZM37.734,34a52.29388,52.29388,0,0,1,6.55527,8.26723,6.29313,6.29313,0,0,1,7.26738,1.6956A29.02453,29.02453,0,0,0,60.10927,34ZM34,73.10281a54.61281,54.61281,0,0,1,13.62894-7.496c-1.7324-2.8052-2.26869-5.62427-2.82294-8.55644-.20123-1.06338-.40888-2.15472-.681-3.29147a6.2618,6.2618,0,0,1-3.15581-7.94531,45.76967,45.76967,0,0,0-6.90786-8.873A3.57709,3.57709,0,0,0,34,37.549Z"/>
</svg>
