<svg id="Layer_1" data-name="Layer 1" xmlns="http://www.w3.org/2000/svg" width="65" height="65" viewBox="0 0 128 128">
  <defs>
    <style>
      .cls-1 {
        fill: #63b04b;
      }
    </style>
  </defs>
  <title>Artboard 1</title>
  <path class="cls-1" d="M92.18382,56H64.39252A2.39956,2.39956,0,0,0,62,58.39252v42.215A2.39956,2.39956,0,0,0,64.39252,103h38.215A2.39956,2.39956,0,0,0,105,100.60748V68.7317ZM67,64H86v6H67ZM99,95H67V89H99Zm0-13H67V76H99ZM55,85H34V79.55243a48.245,48.245,0,0,1,17.11817-9.90769A16.91029,16.91029,0,0,0,55,72.23332V63.188c-.81469.295-1.64546.58923-2.4992.8852-1.762-2.34351-2.24035-4.73705-2.82491-7.80346-.13344-.6999-.2722-1.422-.42867-2.16524a6.34369,6.34369,0,0,0,4.13927-5.37279c5.03537-3.042,9.285-8.01989,12.55532-14.73175H82.36756a54.43144,54.43144,0,0,1-6.129,15h5.32106a67.62113,67.62113,0,0,0,5.54761-15H94V49.32386a6.79752,6.79752,0,0,1,2.83888,1.81753L102,56.64068V29.58879A3.59934,3.59934,0,0,0,98.41121,26H35.76636A10.76636,10.76636,0,0,0,25,36.76636V91.41121A3.59934,3.59934,0,0,0,28.58879,95H55Zm5.11164-51a28.96249,28.96249,0,0,1-8.55009,9.96882,6.29269,6.29269,0,0,0-7.27271-1.70137A52.30335,52.30335,0,0,0,37.73321,34ZM34,37.549a3.57841,3.57841,0,0,1,.06126-.60777,45.764,45.764,0,0,1,6.90786,8.87266,6.26162,6.26162,0,0,0,3.15567,7.94487c.2722,1.13676.47985,2.22817.68107,3.29162.55461,2.9321,1.09112,5.75117,2.82353,8.55637A54.61758,54.61758,0,0,0,34,73.10274Z"/>
</svg>
