<svg id="Layer_1" data-name="Layer 1" xmlns="http://www.w3.org/2000/svg" width="65" height="65" viewBox="0 0 128 128">
  <defs>
    <style>
      .cls-1 {
        fill: #471c5d;
      }

      .cls-2 {
        fill: #7f4a98;
      }

      .cls-3 {
        fill: #284773;
      }

      .cls-4 {
        fill: #4479be;
      }

      .cls-5 {
        fill: #be4e26;
      }

      .cls-6 {
        fill: #dc8331;
      }

      .cls-7 {
        fill: #efcb4a;
      }

      .cls-8 {
        fill: #e19836;
      }
    </style>
  </defs>
  <title>Artboard 1</title>
  <polygon class="cls-1" points="101 101.98 101 26 76.54 26 101 101.98"/>
  <polygon class="cls-2" points="101 26.02 101 102 125.46 102 101 26.02"/>
  <polygon class="cls-3" points="52 101.98 52 26 27.54 26 52 101.98"/>
  <polygon class="cls-4" points="52 26.02 52 102 76 102 52 26.02"/>
  <polygon class="cls-5" points="76 26.02 76 102 52 102 76 26.02"/>
  <polygon class="cls-6" points="76 101.98 76 26 101 26 76 101.98"/>
  <polygon class="cls-7" points="27 101.98 27 26 52 26 27 101.98"/>
  <polygon class="cls-8" points="27 26.02 27 102 2.54 102 27 26.02"/>
</svg>
