<svg id="icons" xmlns="http://www.w3.org/2000/svg" width="128" height="128" viewBox="0 0 128 128">
  <defs>
    <style>
      .cls-1 {
        fill: #ff8200;
      }
    </style>
  </defs>
  <title>144</title>
  <path class="cls-1" d="M108.83411,58.77115,69.22857,19.16566a7.394,7.394,0,0,0-10.45714,0L19.16589,58.77115a7.3943,7.3943,0,0,0,0,10.45743l39.60553,39.60549a7.3941,7.3941,0,0,0,10.45714,0l39.60553-39.60549A7.3943,7.3943,0,0,0,108.83411,58.77115ZM70.45855,92.20674a9.13361,9.13361,0,0,1-12.91686,0l-9.073-9.073c-.20215-7.55726,6.43636-15.46661,13.96213-16.124l1.54838,10.028L81.15546,59.86141,59.56229,48.43249l1.55607,10.0776c-8.64686.75134-17.1453,7.31469-22.11362,15.1598L28.4104,63.07555l35.5897-35.5897,35.58965,35.5896Z"/>
</svg>
