<svg id="icons" xmlns="http://www.w3.org/2000/svg" width="65" height="65" viewBox="0 0 128 128">
  <defs>
    <style>
      .cls-1 {
        fill: #394eee;
      }
    </style>
  </defs>
  <title>ArcGISonline128</title>
  <path class="cls-1" d="M92.65154,87.04893,105.73121,93.5l-27.2305,13.423L51.26879,93.5l13.08109-6.4511,14.15083,6.97772Zm-41.38274-14.547L78.50071,85.923l27.2305-13.4211L78.50071,59.077ZM44.31221,52.88016c-7.778-18.97048,17.39767-29.43186,27.27105-12.49374,11.30725-5.63633,21.17612,2.64263,17.97446,14.35374l19.71036,9.7177a22.113,22.113,0,0,0-8.53039-14.40039,22.42287,22.42287,0,0,0-25.32506-20.94c-16.00983-14.78108-41.109-4.961-42.80437,17.0062C.08985,61.66534,19.10835,103.55241,51.13636,84.14853,22.66327,87.92547,23.92874,55.26768,44.31221,52.88016Z"/>
</svg>
