<svg id="icons" xmlns="http://www.w3.org/2000/svg" width="128" height="128" viewBox="0 0 128 128">
  <defs>
    <style>
      .cls-1 {
        fill: #f5b200;
      }
    </style>
  </defs>
  <title>operations-dashboard-icon_128</title>
  <path class="cls-1" d="M93,100H84V59h9ZM79,69H70v31h9Zm28,4H98v27h9ZM37,46.0862V75.07592c2.10682.099,10.24247-.31575,12.74934-10.476,2.0251-8.20745,10.39725-9.033,13.255-9.26035C68.75364,54.88226,74.1959,53.40256,77,46.0862Zm56-2.89156C92.99,37.50152,87.79443,31,80,31H22.01379V85a9.26945,9.26945,0,0,0,9.29034,9.24841H61V84H35.00571A3.99669,3.99669,0,0,1,31,80.01239V40.1022H80.15884A3.91453,3.91453,0,0,1,84,44.0862v6h9Z"/>
</svg>
