<svg id="icons" xmlns="http://www.w3.org/2000/svg" width="128" height="128" viewBox="0 0 128 128">
  <defs>
    <style>
      .cls-1 {
        fill: #1789ff;
      }
    </style>
  </defs>
  <title>144</title>
  <path class="cls-1" d="M64,22.082A42.668,42.668,0,1,0,106.668,64.75,42.668,42.668,0,0,0,64,22.082Zm0,75.5a33.619,33.619,0,0,1-22.49811-8.599c2.19385-5.46844,4.23795-3.94849,6.78262-8.84924,2.23914-4.31244-.91208-5.6394-3.06839-7.04919S41.899,69.26971,35.762,67.85992c-1.76212-.40479-4.05634-2.29-5.50894-3.90662-.00015-.04065-.00305-.08063-.00305-.12134a33.82407,33.82407,0,0,1,.87143-7.60669,15.978,15.978,0,0,0,4.72342.02429c3.23431-.49756,2.23914-3.81482,3.31741-6.80035,1.078-2.98553,5.14154-3.23431,6.96619-6.71741,1.226-2.34088.25369-5.14734-.92-6.9361a33.74881,33.74881,0,0,1,29.70013-3.90118,14.63586,14.63586,0,0,1,.03827,5.36383c-.43878,1.69629-3.62683,2.52271-4.52676,4.00171s-1.97278,5.589.4639,6.54462c2.43643.95557,5.16153-.28711,7.25562,1.064,2.571,1.65857,4.56137,5.22461,2.90268,5.47339s-6.55148-1.161-9.7858-1.161S60.06085,58.98626,60.55844,64.045c.60425,6.14307,2.73672,6.8833,6.71741,6.96625s6.96622,1.07813,5.63916,4.31238C71.5882,78.558,71.25653,81.12884,72.41742,85.69c1.1611,4.56128,4.56137,2.32214,6.38577.33179s7.215-7.54675,7.13214-11.02985c-.0831-3.48309,2.90244-4.89288,4.72705-7.79547,1.8244-2.90259-3.649-9.53711-3.649-9.53711S90.554,59.90588,92.56964,59.318c1.99036-.58051.49759-2.98553,2.15628-4.72711a2.64333,2.64333,0,0,1,1.61807-.403A33.75363,33.75363,0,0,1,64,97.582Z"/>
</svg>
