<svg id="icons" xmlns="http://www.w3.org/2000/svg" width="128" height="128" viewBox="0 0 128 128">
  <defs>
    <style>
      .cls-1 {
        fill: #00aba3;
      }
    </style>
  </defs>
  <title>StoryMaps128</title>
  <path class="cls-1" d="M94,21c-7.38023,0-13,2.86262-13,10.31578V58.29941L94,71.78779l13-13.48839V31.31578C107,23.86262,101.38023,21,94,21Zm0,22a7,7,0,1,1,7-6.99687A6.99713,6.99713,0,0,1,94,43Zm12.40939,28.88776A22.859,22.859,0,0,1,85,84c-6.00194-.35273-12,.09574-15,2.23366V45a6.99524,6.99524,0,0,1,3-1.964V32.989a25.60594,25.60594,0,0,0-8.66,3.55421l-.34173.18827-.23841-.18827c-9.314-6.38779-21.56644-4.53311-32.76877-2.87257-1.92157.288-3.62155.57575-5.52322.82358L22,34.94287v62.176l4.46641-.58244c2.05568-.2612,4.00428-.57592,6.03989-.88394,11.52358-1.72759,22.14755-3.35468,28.61561,2.98629l2.8819,2.86295,2.90114-2.86295c6.46823-6.341,17.51954-4.71388,29.04311-2.98629,2.03562.308,4.17248.62274,6.22816.88394L107,97.11883V70.86611ZM58,86.23366c-8.5-3.60866-14.02224-1.92111-23.79832-.46125A5.32035,5.32035,0,0,0,33,86V42.36154s1.349-.241,2.15251-.36154C43.78691,40.39727,49.85943,39.91346,58,45Z"/>
</svg>
