<svg id="icons" xmlns="http://www.w3.org/2000/svg" width="128" height="128" viewBox="0 0 128 128">
  <defs>
    <style>
      .cls-1 {
        fill: #63b04b;
      }
    </style>
  </defs>
  <title>144</title>
  <path class="cls-1" d="M73.94271,59.06055,99.67643,33.332l7.28385,7.2832L73.94206,73.627,55.74154,55.42513l7.28516-7.28125ZM35,43h0a3.00882,3.00882,0,0,0-3-3H24a3.00882,3.00882,0,0,0-3,3h0a3.00882,3.00882,0,0,0,3,3h8A3.00882,3.00882,0,0,0,35,43Zm0,22h0a3.00882,3.00882,0,0,0-3-3H24a3.00882,3.00882,0,0,0-3,3h0a3.00882,3.00882,0,0,0,3,3h8A3.00882,3.00882,0,0,0,35,65Zm0,22h0a3.00882,3.00882,0,0,0-3-3H24a3.00882,3.00882,0,0,0-3,3h0a3.00882,3.00882,0,0,0,3,3h8A3.00882,3.00882,0,0,0,35,87ZM91,69.195V76A18,18,0,0,1,73,94H45V36H85.58862L94.591,27H31.75A4.76394,4.76394,0,0,0,27,31.75V36h5a7,7,0,0,1,0,14H27v8h5a7,7,0,0,1,0,14H27v8h5a7,7,0,0,1,0,14H27v4.24994A4.764,4.764,0,0,0,31.75,103h64.5A4.764,4.764,0,0,0,101,98.25V59.19647Z"/>
</svg>
