<svg id="icons" xmlns="http://www.w3.org/2000/svg" width="128" height="128" viewBox="0 0 128 128">
  <defs>
    <style>
      .cls-1 {
        fill: #39d5eb;
      }
    </style>
  </defs>
  <title>WorkflowManager128</title>
  <path class="cls-1" d="M61.5,77.77778,50,71.5668V58.547l11.5-6.32477L73,58.547V71.5668Zm49.4425-12.05716A22.92412,22.92412,0,0,0,99.45938,46.00388L69.91492,28.946a12.31957,12.31957,0,0,0-12.70807-.13717c-1.85093,1.01659-3.14626,1.73441-3.59212,1.992A9.37061,9.37061,0,0,0,49,38.9784v6.13786l6.494-3.81093a12.64428,12.64428,0,0,1,6.21343-1.86483,12.642,12.642,0,0,1,6.21306,1.86483l11.2386,6.48732c.24884.14387.49086.2966.69469.43578l16.23441,9.37249a20.32731,20.32731,0,0,1,10.13519,17.55441c0,.40834-.031,2.07116-.08147,4.39927A22.85861,22.85861,0,0,0,110.9425,65.72062ZM24,75.79038a13.10185,13.10185,0,0,0,6.28691,11.18411c2.90994,1.77263,5.10969,3.09994,5.73635,3.46248a9.82322,9.82322,0,0,0,9.79118-.00069l5.50538-3.17939-7.06307-4.07806A12.514,12.514,0,0,1,38,72.34155v-33.948a21.14384,21.14384,0,0,1,10.57843-18.2044c.31144-.18025,1.56072-.87174,3.21191-1.77957a23.76393,23.76393,0,0,0-4.31694-.61407,24.78733,24.78733,0,0,0-14.19158,4.9124A22.7054,22.7054,0,0,0,24,41.19585Zm66.17444-8.81262L85,63.91678v7.615a12.583,12.583,0,0,1-6.3416,10.76146L67.42047,88.78072c-.2669.15474-.53857.29593-.77717.409L50.44909,98.53981a20.60909,20.60909,0,0,1-10.13548,3.00569,20.60452,20.60452,0,0,1-10.13519-3.00636c-.47007-.27134-2.71985-1.6307-5.54191-3.348a22.80274,22.80274,0,0,0,10.61442,13.88183,23.11722,23.11722,0,0,0,11.38414,3.35058,23.12,23.12,0,0,0,11.38347-3.34991L88.32041,91.5779A13.12964,13.12964,0,0,0,94.8967,80.65417c.06445-2.83047.103-4.88741.1033-5.50034A9.56831,9.56831,0,0,0,90.17444,66.97776Z"/>
</svg>
