<svg id="icons" xmlns="http://www.w3.org/2000/svg" width="144" height="144" viewBox="0 0 144 144">
  <defs>
    <style>
      .cls-1 {
        fill: #ae3719;
      }
    </style>
  </defs>
  <title>144</title>
  <path class="cls-1" d="M114,92.75V103.5A13.53969,13.53969,0,0,1,100.5,117H60V79.5A10.53086,10.53086,0,0,1,70.5,69H106V60l17,14L106,88V79H71v25H99C105.18749,104,111.18749,100.25,114,92.75Zm0-44.25A10.53086,10.53086,0,0,0,103.5,38H71.25l-7.3045-7.3045A5.78866,5.78866,0,0,0,59.85231,29L37.5,29A10.74806,10.74806,0,0,0,27,39.75V88.5a10.52692,10.52692,0,0,0,9.75,10.46182H51V86H38V39H56.25l8.09723,8.09714A3.08247,3.08247,0,0,0,66.52682,48H105.75L114,54.75Z"/>
</svg>
