<?xml version="1.0" encoding="utf-8"?>
<!-- Generator: Adobe Illustrator 18.1.1, SVG Export Plug-In . SVG Version: 6.00 Build 0)  -->
<svg version="1.1" id="Layer_1" xmlns="http://www.w3.org/2000/svg" xmlns:xlink="http://www.w3.org/1999/xlink" x="0px" y="0px"
	 viewBox="0 0 500 500" enable-background="new 0 0 500 500" xml:space="preserve">
<path fill="#0C7AC0" d="M250,79.4c-94.2,0-170.7,76.4-170.7,170.6c0,94.2,76.4,170.7,170.7,170.7c94.3,0,170.7-76.4,170.7-170.7
	C420.7,155.7,344.2,79.4,250,79.4z M352.1,259.3l-92.9,92.9c-4.9,4.9-13.6,4.9-18.5,0c-5.1-5.1-5.1-13.4,0-18.5l70.6-70.6H157.1
	c-7.2,0-13.1-5.9-13.1-13.1c0-7.2,5.9-13.1,13.1-13.1h154.2l-70.6-70.6c-5.1-5.1-5.1-13.4,0-18.5c4.9-4.9,13.6-4.9,18.5,0l92.9,92.9
	C357.2,245.8,357.2,254.1,352.1,259.3z"/>
</svg>
